<?xml version="1.0" encoding="UTF-8"?>
<svg version="1.1" viewBox="0 0 400 178.2" xmlns="http://www.w3.org/2000/svg" xmlns:cc="http://creativecommons.org/ns#" xmlns:dc="http://purl.org/dc/elements/1.1/" xmlns:rdf="http://www.w3.org/1999/02/22-rdf-syntax-ns#">
<title>Société de transport de Montréal logo</title>
 <metadata>
  <rdf:RDF>
   <cc:Work rdf:about="">
    <dc:format>image/svg+xml</dc:format>
    <dc:type rdf:resource="http://purl.org/dc/dcmitype/StillImage"/>
    <dc:title/>
   </cc:Work>
  </rdf:RDF>
 </metadata>
 <g transform="translate(-346.2 -367)">
  <g transform="matrix(8.696 0 0 -8.696 736.8 447.5)">
   <path d="m0 0c-0.707 0.709-1.73 1.078-2.998 1.078-1.248 1e-3 -2.268-0.459-3.099-1.428-0.789 1.111-2.074 1.428-2.844 1.428-1.308 2e-3 -1.958-0.467-2.57-1.051-0.13 0.445-0.396 0.889-1 0.888h-0.629c-0.252 0-0.486-0.068-0.656-0.24-0.168-0.172-0.267-0.441-0.267-0.823v-9.86c0-0.383 0.099-0.651 0.267-0.823 0.17-0.173 0.404-0.242 0.656-0.241l0.811-1e-3c0.253 0 0.486 0.069 0.655 0.242 0.169 0.172 0.268 0.44 0.268 0.823v6.491c6e-3 1.442 0.742 2.034 1.796 2.039 1.053-5e-3 1.789-0.597 1.795-2.039v-6.491c0-0.383 0.099-0.651 0.268-0.823 0.169-0.173 0.403-0.242 0.655-0.241l0.811-1e-3c0.252 0 0.485 0.069 0.654 0.236 0.169 0.166 0.269 0.426 0.269 0.788v6.532c5e-3 1.442 0.741 2.034 1.795 2.039 1.054-5e-3 1.79-0.597 1.796-2.039v-6.491c0-0.383 0.099-0.651 0.268-0.823 0.168-0.173 0.403-0.242 0.656-0.242l0.81 1e-3c0.252-1e-3 0.486 0.068 0.655 0.241 0.169 0.172 0.268 0.44 0.268 0.823v6.918c1e-3 1.337-0.384 2.382-1.09 3.09zm-15.18-9.389c-0.134 0.624-0.496 0.88-0.907 0.877-0.081 0-0.165-9e-3 -0.248-0.026-0.251-0.047-0.467-0.073-0.654-0.073-0.435 3e-3 -0.696 0.131-0.869 0.467-0.172 0.338-0.242 0.899-0.242 1.747v4.899h1.856c0.252 0 0.486 0.07 0.655 0.241 0.169 0.172 0.268 0.441 0.268 0.824v0.285c0 0.382-0.099 0.651-0.268 0.823s-0.403 0.24-0.655 0.24h-1.856v2.081c0 0.291-0.087 0.523-0.228 0.682-0.143 0.159-0.341 0.243-0.551 0.243-0.141 0-0.288-0.036-0.43-0.109l-0.649-0.326c-0.391-0.201-0.741-0.472-0.758-1.16v-1.411h-1.045c-0.252 0-0.486-0.068-0.655-0.24s-0.268-0.441-0.268-0.823v-0.285c0-0.383 0.099-0.652 0.268-0.824 0.169-0.171 0.403-0.241 0.655-0.241h1.004v-5.122c-7e-3 -2.908 1.033-4.497 3.316-4.533 0.45 0 1.064 0.039 1.66 0.246 0.376 0.133 0.706 0.374 0.703 0.885 0 0.105-0.012 0.221-0.042 0.349zm-12.27 5.739c-0.737 0.122-1.282 0.26-1.634 0.451-0.353 0.195-0.512 0.43-0.514 0.777 0 0.338 0.176 0.624 0.48 0.834 0.304 0.208 0.736 0.333 1.235 0.333 0.944-1e-3 1.694-0.277 2.273-0.995 0.277-0.354 0.522-0.512 0.803-0.511 0.172 0 0.35 0.058 0.556 0.152l0.226 0.124c0.478 0.223 0.676 0.522 0.675 0.842-1e-3 0.146-0.041 0.293-0.107 0.439-0.622 1.345-2.422 2.28-4.325 2.282-1.542 0-2.652-0.507-3.375-1.214-0.722-0.707-1.057-1.612-1.057-2.407-3e-3 -2.182 1.46-3.139 4.466-3.538 0.94-0.132 1.548-0.304 1.915-0.531 0.366-0.228 0.494-0.498 0.495-0.86 0-0.459-0.231-0.811-0.605-1.056s-0.893-0.375-1.453-0.375c-1.004 2e-3 -1.975 0.317-2.718 1.418-0.218 0.329-0.46 0.536-0.79 0.536-0.164 0-0.345-0.05-0.552-0.154l-0.262-0.121c-0.482-0.225-0.68-0.524-0.679-0.844 0-0.146 0.04-0.294 0.106-0.439 0.763-1.748 2.769-2.727 4.773-2.728 1.409 0 2.605 0.372 3.454 1.046 0.848 0.672 1.343 1.648 1.343 2.838 2e-3 2.326-1.624 3.18-4.729 3.701" style="fill:#00aeef"/>
  </g>
  <g transform="matrix(8.696 0 0 -8.696 404.7 459.7)">
   <path d="m0 0c-0.761 0-1.496 0.419-1.857 1.149l4.653 2.328c0.701 0.346 1.144 1.07 1.144 1.856 0 0.795-0.443 1.502-1.144 1.854l-4.656 2.33c0.362 0.726 1.097 1.15 1.86 1.15 0.311 0 0.628-0.072 0.925-0.222l6.504-3.258c0.712-0.352 1.152-1.059 1.152-1.854 0-0.786-0.44-1.51-1.152-1.856l-6.504-3.258c-0.296-0.149-0.613-0.219-0.925-0.219" style="fill:#00aeef"/>
  </g>
  <g transform="matrix(8.696 0 0 -8.696 364.3 459.7)">
   <path d="m0 0c-0.762 0-1.494 0.419-1.852 1.152-0.516 1.028-0.102 2.277 0.922 2.788l2.786 1.393-2.786 1.391c-1.024 0.517-1.438 1.772-0.922 2.793 0.359 0.726 1.091 1.15 1.854 1.15 0.311 0 0.629-0.072 0.928-0.222l1.853-0.928c-0.152-0.303-0.225-0.627-0.222-0.946 6e-3 -0.756 0.425-1.483 1.145-1.847l2.788-1.391-2.788-1.393c-0.72-0.36-1.139-1.084-1.145-1.84-3e-3 -0.318 0.07-0.643 0.222-0.948l3e-3 -3e-3 -1.856-0.93c-0.3-0.149-0.617-0.219-0.93-0.219" style="fill:#ffe512"/>
  </g>
  <g transform="matrix(8.696 0 0 -8.696 388.5 449.7)">
   <path d="m0 0-3e-3 3e-3c-0.153 0.305-0.225 0.629-0.223 0.948 7e-3 0.756 0.426 1.481 1.146 1.84l2.788 1.394-2.788 1.39c-0.72 0.363-1.139 1.091-1.146 1.847-2e-3 0.32 0.07 0.643 0.223 0.946l4.655-2.33c0.702-0.353 1.145-1.059 1.145-1.853 0-0.788-0.443-1.511-1.145-1.857l-4.652-2.328" style="fill:#00a94f"/>
  </g>
 </g>
</svg>
